<?xml version="1.0" encoding="utf-8"?>
<!-- Generator: Adobe Illustrator 19.2.1, SVG Export Plug-In . SVG Version: 6.00 Build 0)  -->
<svg version="1.1" id="Layer_1" xmlns="http://www.w3.org/2000/svg" xmlns:xlink="http://www.w3.org/1999/xlink" x="0px" y="0px"
	 viewBox="0 0 450 140" enable-background="new 0 0 450 140" xml:space="preserve">
<g>
	<g id="XMLID_123_">
		<polygon id="XMLID_1_" fill="#016BAF" points="121.624,102.512 65.312,135.023 9,102.512 9,37.488 65.312,4.977 121.624,37.488 		
			"/>
		<g id="XMLID_3_">
			<path id="XMLID_5_" fill="#FFFFFF" d="M46.719,84.384l7.437-4.501c1.435,2.544,2.74,4.696,5.871,4.696
				c3.001,0,4.893-1.174,4.893-5.74V47.787h9.133V78.97c0,9.459-5.545,13.765-13.634,13.765
				C53.113,92.734,48.872,88.951,46.719,84.384"/>
			<path id="XMLID_4_" fill="#FFFFFF" d="M79.011,83.406l7.436-4.306c1.958,3.197,4.502,5.545,9.003,5.545
				c3.784,0,6.197-1.892,6.197-4.501c0-3.131-2.479-4.24-6.654-6.067l-2.283-0.979c-6.589-2.805-10.96-6.327-10.96-13.764
				c0-6.85,5.219-12.069,13.374-12.069c5.806,0,9.981,2.023,12.981,7.307l-7.111,4.566c-1.566-2.805-3.261-3.914-5.871-3.914
				c-2.675,0-4.371,1.696-4.371,3.914c0,2.74,1.696,3.849,5.61,5.545l2.283,0.978c7.763,3.327,12.134,6.719,12.134,14.351
				c0,8.22-6.458,12.721-15.134,12.721C87.165,92.734,81.686,88.69,79.011,83.406"/>
		</g>
		<polygon id="XMLID_70_" fill="#343433" points="65.312,135.023 121.624,102.512 9,102.512 		"/>
	</g>
	<g>
		<path fill="#343433" d="M132.627,48.907h28.435v7.985h-19.346v11.491h17.593v8.115h-17.593v16.555h-9.089V48.907z"/>
		<path fill="#343433" d="M164.958,79.29c0-8.44,6.687-14.477,15.257-14.477c8.569,0,15.191,6.038,15.191,14.477
			c0,8.375-6.622,14.347-15.191,14.347C171.645,93.637,164.958,87.665,164.958,79.29z M186.447,79.29
			c0-4.155-2.337-6.946-6.232-6.946c-3.895,0-6.297,2.791-6.297,6.946c0,4.09,2.402,6.947,6.297,6.947
			C184.109,86.237,186.447,83.38,186.447,79.29z"/>
		<path fill="#343433" d="M201.119,81.367v-15.97h8.764v15.386c0,3.116,1.493,4.934,4.609,4.934c3.506,0,5.453-2.012,5.453-5.518
			V65.397h8.764v27.656h-8.764l0.195-4.544c-1.688,3.311-4.869,5.129-8.699,5.129C205.404,93.637,201.119,89.223,201.119,81.367z"/>
		<path fill="#343433" d="M235.592,65.397h8.764l-0.195,4.544c1.688-3.311,4.934-5.129,8.764-5.129
			c6.037,0,10.388,4.415,10.388,12.27v15.971h-8.765V77.667c0-3.116-1.493-4.869-4.609-4.869c-3.506,0-5.583,1.948-5.583,5.453
			v14.802h-8.764V65.397z"/>
		<path fill="#343433" d="M269.091,79.16c0-8.505,5.713-14.347,12.4-14.347c4.415,0,6.881,1.753,8.634,4.48V46.18h8.764v46.873
			h-8.764l0.195-4.025c-1.559,2.921-4.479,4.609-8.699,4.609C274.868,93.637,269.091,87.665,269.091,79.16z M290.385,79.16
			c0-4.09-2.467-6.622-6.233-6.622c-3.701,0-6.037,2.532-6.037,6.622c0,4.35,2.337,6.817,6.037,6.817
			C287.917,85.977,290.385,83.51,290.385,79.16z"/>
		<path fill="#343433" d="M317.457,72.019c-3.311,0-5.064,1.428-6.298,2.532l-4.869-5.193c2.597-2.532,5.518-4.545,12.01-4.545
			c7.077,0,12.465,3.83,12.465,12.53v15.711h-8.699l0.195-3.83c-2.078,3.181-4.479,4.415-8.18,4.415
			c-5.064,0-9.739-2.272-9.739-8.699c0-5.908,4.48-8.31,11.296-8.31h6.427C321.936,73.447,320.378,72.019,317.457,72.019z
			 M316.093,81.822c-2.207,0-3.181,0.974-3.181,2.532s1.298,2.467,3.765,2.467c3.571,0,5.389-1.558,5.389-3.895v-1.103H316.093z"/>
		<path fill="#343433" d="M339.789,82.666v-9.998h-4.09v-7.271h4.09v-9.868h8.7v9.868h7.076v7.271h-7.076v10.257
			c0,2.791,0.909,3.376,2.272,3.376c1.428,0,2.467-0.779,3.051-1.169l3.311,6.103c-1.364,1.104-3.701,2.532-7.726,2.532
			C343.814,93.767,339.789,90.976,339.789,82.666z"/>
		<path fill="#343433" d="M360.759,55.27c0-3.181,2.596-5.453,5.583-5.453c2.987,0,5.518,2.272,5.518,5.453
			c0,3.246-2.531,5.518-5.518,5.518C363.356,60.788,360.759,58.515,360.759,55.27z M361.928,65.397h8.764v27.656h-8.764V65.397z"/>
		<path fill="#343433" d="M376.924,79.29c0-8.44,6.686-14.477,15.256-14.477s15.192,6.038,15.192,14.477
			c0,8.375-6.622,14.347-15.192,14.347S376.924,87.665,376.924,79.29z M398.412,79.29c0-4.155-2.337-6.946-6.233-6.946
			c-3.895,0-6.297,2.791-6.297,6.946c0,4.09,2.402,6.947,6.297,6.947C396.075,86.237,398.412,83.38,398.412,79.29z"/>
		<path fill="#343433" d="M413.279,65.397h8.764l-0.195,4.544c1.688-3.311,4.934-5.129,8.764-5.129
			c6.037,0,10.388,4.415,10.388,12.27v15.971h-8.765V77.667c0-3.116-1.493-4.869-4.609-4.869c-3.506,0-5.583,1.948-5.583,5.453
			v14.802h-8.764V65.397z"/>
	</g>
</g>
</svg>
